<svg width="40" height="41" viewBox="0 0 40 41" fill="none" xmlns="http://www.w3.org/2000/svg">
<g id="labs">
<mask id="mask0_2145_9573" style="mask-type:alpha" maskUnits="userSpaceOnUse" x="0" y="0" width="40" height="41">
<rect id="Bounding box" y="0.5" width="40" height="40" fill="#D9D9D9"/>
</mask>
<g mask="url(#mask0_2145_9573)">
<path id="labs_2" d="M20.0002 37.1668C17.6946 37.1668 15.7293 36.3543 14.1043 34.7293C12.4793 33.1043 11.6668 31.1391 11.6668 28.8335V13.8335H8.3335V3.8335H31.6668V13.8335H28.3335V28.8335C28.3335 31.1391 27.521 33.1043 25.896 34.7293C24.271 36.3543 22.3057 37.1668 20.0002 37.1668ZM19.9935 34.3889C21.5349 34.3889 22.8472 33.8488 23.9306 32.7685C25.0139 31.6885 25.5556 30.3768 25.5556 28.8335V28.2781H20.0002V25.5002H25.5556V21.6114H20.0002V18.8335H25.5556V13.8335H14.4447V28.8335C14.4447 30.3768 14.9842 31.6885 16.0631 32.7685C17.142 33.8488 18.4521 34.3889 19.9935 34.3889Z" fill="#591D00"/>
</g>
</g>
</svg>
