<svg xmlns="http://www.w3.org/2000/svg" viewBox="0 0 100 100" preserveAspectRatio="xMidYMid" width="400" height="400" style="shape-rendering: auto; display: block; background: transparent;" xmlns:xlink="http://www.w3.org/1999/xlink"><g><g transform="rotate(0 50 50)">
  <rect fill="#ffffff" height="3" width="0.5" ry="0" rx="0" y="13.5" x="49.5">
    <animate repeatCount="indefinite" begin="-4.124999999999999s" dur="4.166666666666666s" keyTimes="0;1" values="1;0.3" attributeName="opacity"></animate>
  </rect>
</g><g transform="rotate(3.6 50 50)">
  <rect fill="#ffffff" height="3" width="0.5" ry="0" rx="0" y="13.5" x="49.5">
    <animate repeatCount="indefinite" begin="-4.083333333333333s" dur="4.166666666666666s" keyTimes="0;1" values="1;0.3" attributeName="opacity"></animate>
  </rect>
</g><g transform="rotate(7.2 50 50)">
  <rect fill="#ffffff" height="3" width="0.5" ry="0" rx="0" y="13.5" x="49.5">
    <animate repeatCount="indefinite" begin="-4.041666666666666s" dur="4.166666666666666s" keyTimes="0;1" values="1;0.3" attributeName="opacity"></animate>
  </rect>
</g><g transform="rotate(10.8 50 50)">
  <rect fill="#ffffff" height="3" width="0.5" ry="0" rx="0" y="13.5" x="49.5">
    <animate repeatCount="indefinite" begin="-3.9999999999999996s" dur="4.166666666666666s" keyTimes="0;1" values="1;0.3" attributeName="opacity"></animate>
  </rect>
</g><g transform="rotate(14.4 50 50)">
  <rect fill="#ffffff" height="3" width="0.5" ry="0" rx="0" y="13.5" x="49.5">
    <animate repeatCount="indefinite" begin="-3.9583333333333326s" dur="4.166666666666666s" keyTimes="0;1" values="1;0.3" attributeName="opacity"></animate>
  </rect>
</g><g transform="rotate(18 50 50)">
  <rect fill="#ffffff" height="3" width="0.5" ry="0" rx="0" y="13.5" x="49.5">
    <animate repeatCount="indefinite" begin="-3.916666666666666s" dur="4.166666666666666s" keyTimes="0;1" values="1;0.3" attributeName="opacity"></animate>
  </rect>
</g><g transform="rotate(21.6 50 50)">
  <rect fill="#ffffff" height="3" width="0.5" ry="0" rx="0" y="13.5" x="49.5">
    <animate repeatCount="indefinite" begin="-3.8749999999999996s" dur="4.166666666666666s" keyTimes="0;1" values="1;0.3" attributeName="opacity"></animate>
  </rect>
</g><g transform="rotate(25.2 50 50)">
  <rect fill="#ffffff" height="3" width="0.5" ry="0" rx="0" y="13.5" x="49.5">
    <animate repeatCount="indefinite" begin="-3.8333333333333326s" dur="4.166666666666666s" keyTimes="0;1" values="1;0.3" attributeName="opacity"></animate>
  </rect>
</g><g transform="rotate(28.8 50 50)">
  <rect fill="#ffffff" height="3" width="0.5" ry="0" rx="0" y="13.5" x="49.5">
    <animate repeatCount="indefinite" begin="-3.791666666666666s" dur="4.166666666666666s" keyTimes="0;1" values="1;0.3" attributeName="opacity"></animate>
  </rect>
</g><g transform="rotate(32.4 50 50)">
  <rect fill="#ffffff" height="3" width="0.5" ry="0" rx="0" y="13.5" x="49.5">
    <animate repeatCount="indefinite" begin="-3.7499999999999996s" dur="4.166666666666666s" keyTimes="0;1" values="1;0.3" attributeName="opacity"></animate>
  </rect>
</g><g transform="rotate(36 50 50)">
  <rect fill="#ffffff" height="3" width="0.5" ry="0" rx="0" y="13.5" x="49.5">
    <animate repeatCount="indefinite" begin="-3.7083333333333326s" dur="4.166666666666666s" keyTimes="0;1" values="1;0.3" attributeName="opacity"></animate>
  </rect>
</g><g transform="rotate(39.6 50 50)">
  <rect fill="#ffffff" height="3" width="0.5" ry="0" rx="0" y="13.5" x="49.5">
    <animate repeatCount="indefinite" begin="-3.666666666666666s" dur="4.166666666666666s" keyTimes="0;1" values="1;0.3" attributeName="opacity"></animate>
  </rect>
</g><g transform="rotate(43.2 50 50)">
  <rect fill="#ffffff" height="3" width="0.5" ry="0" rx="0" y="13.5" x="49.5">
    <animate repeatCount="indefinite" begin="-3.6249999999999996s" dur="4.166666666666666s" keyTimes="0;1" values="1;0.3" attributeName="opacity"></animate>
  </rect>
</g><g transform="rotate(46.8 50 50)">
  <rect fill="#ffffff" height="3" width="0.5" ry="0" rx="0" y="13.5" x="49.5">
    <animate repeatCount="indefinite" begin="-3.5833333333333326s" dur="4.166666666666666s" keyTimes="0;1" values="1;0.3" attributeName="opacity"></animate>
  </rect>
</g><g transform="rotate(50.4 50 50)">
  <rect fill="#ffffff" height="3" width="0.5" ry="0" rx="0" y="13.5" x="49.5">
    <animate repeatCount="indefinite" begin="-3.541666666666666s" dur="4.166666666666666s" keyTimes="0;1" values="1;0.3" attributeName="opacity"></animate>
  </rect>
</g><g transform="rotate(54 50 50)">
  <rect fill="#ffffff" height="3" width="0.5" ry="0" rx="0" y="13.5" x="49.5">
    <animate repeatCount="indefinite" begin="-3.4999999999999996s" dur="4.166666666666666s" keyTimes="0;1" values="1;0.3" attributeName="opacity"></animate>
  </rect>
</g><g transform="rotate(57.6 50 50)">
  <rect fill="#ffffff" height="3" width="0.5" ry="0" rx="0" y="13.5" x="49.5">
    <animate repeatCount="indefinite" begin="-3.458333333333333s" dur="4.166666666666666s" keyTimes="0;1" values="1;0.3" attributeName="opacity"></animate>
  </rect>
</g><g transform="rotate(61.2 50 50)">
  <rect fill="#ffffff" height="3" width="0.5" ry="0" rx="0" y="13.5" x="49.5">
    <animate repeatCount="indefinite" begin="-3.416666666666666s" dur="4.166666666666666s" keyTimes="0;1" values="1;0.3" attributeName="opacity"></animate>
  </rect>
</g><g transform="rotate(64.8 50 50)">
  <rect fill="#ffffff" height="3" width="0.5" ry="0" rx="0" y="13.5" x="49.5">
    <animate repeatCount="indefinite" begin="-3.3749999999999996s" dur="4.166666666666666s" keyTimes="0;1" values="1;0.3" attributeName="opacity"></animate>
  </rect>
</g><g transform="rotate(68.4 50 50)">
  <rect fill="#ffffff" height="3" width="0.5" ry="0" rx="0" y="13.5" x="49.5">
    <animate repeatCount="indefinite" begin="-3.333333333333333s" dur="4.166666666666666s" keyTimes="0;1" values="1;0.3" attributeName="opacity"></animate>
  </rect>
</g><g transform="rotate(72 50 50)">
  <rect fill="#ffffff" height="3" width="0.5" ry="0" rx="0" y="13.5" x="49.5">
    <animate repeatCount="indefinite" begin="-3.291666666666666s" dur="4.166666666666666s" keyTimes="0;1" values="1;0.3" attributeName="opacity"></animate>
  </rect>
</g><g transform="rotate(75.6 50 50)">
  <rect fill="#ffffff" height="3" width="0.5" ry="0" rx="0" y="13.5" x="49.5">
    <animate repeatCount="indefinite" begin="-3.2499999999999996s" dur="4.166666666666666s" keyTimes="0;1" values="1;0.3" attributeName="opacity"></animate>
  </rect>
</g><g transform="rotate(79.2 50 50)">
  <rect fill="#ffffff" height="3" width="0.5" ry="0" rx="0" y="13.5" x="49.5">
    <animate repeatCount="indefinite" begin="-3.208333333333333s" dur="4.166666666666666s" keyTimes="0;1" values="1;0.3" attributeName="opacity"></animate>
  </rect>
</g><g transform="rotate(82.8 50 50)">
  <rect fill="#ffffff" height="3" width="0.5" ry="0" rx="0" y="13.5" x="49.5">
    <animate repeatCount="indefinite" begin="-3.166666666666666s" dur="4.166666666666666s" keyTimes="0;1" values="1;0.3" attributeName="opacity"></animate>
  </rect>
</g><g transform="rotate(86.4 50 50)">
  <rect fill="#ffffff" height="3" width="0.5" ry="0" rx="0" y="13.5" x="49.5">
    <animate repeatCount="indefinite" begin="-3.1249999999999996s" dur="4.166666666666666s" keyTimes="0;1" values="1;0.3" attributeName="opacity"></animate>
  </rect>
</g><g transform="rotate(90 50 50)">
  <rect fill="#ffffff" height="3" width="0.5" ry="0" rx="0" y="13.5" x="49.5">
    <animate repeatCount="indefinite" begin="-3.083333333333333s" dur="4.166666666666666s" keyTimes="0;1" values="1;0.3" attributeName="opacity"></animate>
  </rect>
</g><g transform="rotate(93.6 50 50)">
  <rect fill="#ffffff" height="3" width="0.5" ry="0" rx="0" y="13.5" x="49.5">
    <animate repeatCount="indefinite" begin="-3.041666666666666s" dur="4.166666666666666s" keyTimes="0;1" values="1;0.3" attributeName="opacity"></animate>
  </rect>
</g><g transform="rotate(97.2 50 50)">
  <rect fill="#ffffff" height="3" width="0.5" ry="0" rx="0" y="13.5" x="49.5">
    <animate repeatCount="indefinite" begin="-2.9999999999999996s" dur="4.166666666666666s" keyTimes="0;1" values="1;0.3" attributeName="opacity"></animate>
  </rect>
</g><g transform="rotate(100.8 50 50)">
  <rect fill="#ffffff" height="3" width="0.5" ry="0" rx="0" y="13.5" x="49.5">
    <animate repeatCount="indefinite" begin="-2.958333333333333s" dur="4.166666666666666s" keyTimes="0;1" values="1;0.3" attributeName="opacity"></animate>
  </rect>
</g><g transform="rotate(104.4 50 50)">
  <rect fill="#ffffff" height="3" width="0.5" ry="0" rx="0" y="13.5" x="49.5">
    <animate repeatCount="indefinite" begin="-2.916666666666666s" dur="4.166666666666666s" keyTimes="0;1" values="1;0.3" attributeName="opacity"></animate>
  </rect>
</g><g transform="rotate(108 50 50)">
  <rect fill="#ffffff" height="3" width="0.5" ry="0" rx="0" y="13.5" x="49.5">
    <animate repeatCount="indefinite" begin="-2.8749999999999996s" dur="4.166666666666666s" keyTimes="0;1" values="1;0.3" attributeName="opacity"></animate>
  </rect>
</g><g transform="rotate(111.6 50 50)">
  <rect fill="#ffffff" height="3" width="0.5" ry="0" rx="0" y="13.5" x="49.5">
    <animate repeatCount="indefinite" begin="-2.833333333333333s" dur="4.166666666666666s" keyTimes="0;1" values="1;0.3" attributeName="opacity"></animate>
  </rect>
</g><g transform="rotate(115.2 50 50)">
  <rect fill="#ffffff" height="3" width="0.5" ry="0" rx="0" y="13.5" x="49.5">
    <animate repeatCount="indefinite" begin="-2.791666666666666s" dur="4.166666666666666s" keyTimes="0;1" values="1;0.3" attributeName="opacity"></animate>
  </rect>
</g><g transform="rotate(118.8 50 50)">
  <rect fill="#ffffff" height="3" width="0.5" ry="0" rx="0" y="13.5" x="49.5">
    <animate repeatCount="indefinite" begin="-2.7499999999999996s" dur="4.166666666666666s" keyTimes="0;1" values="1;0.3" attributeName="opacity"></animate>
  </rect>
</g><g transform="rotate(122.4 50 50)">
  <rect fill="#ffffff" height="3" width="0.5" ry="0" rx="0" y="13.5" x="49.5">
    <animate repeatCount="indefinite" begin="-2.708333333333333s" dur="4.166666666666666s" keyTimes="0;1" values="1;0.3" attributeName="opacity"></animate>
  </rect>
</g><g transform="rotate(126 50 50)">
  <rect fill="#ffffff" height="3" width="0.5" ry="0" rx="0" y="13.5" x="49.5">
    <animate repeatCount="indefinite" begin="-2.666666666666666s" dur="4.166666666666666s" keyTimes="0;1" values="1;0.3" attributeName="opacity"></animate>
  </rect>
</g><g transform="rotate(129.6 50 50)">
  <rect fill="#ffffff" height="3" width="0.5" ry="0" rx="0" y="13.5" x="49.5">
    <animate repeatCount="indefinite" begin="-2.6249999999999996s" dur="4.166666666666666s" keyTimes="0;1" values="1;0.3" attributeName="opacity"></animate>
  </rect>
</g><g transform="rotate(133.2 50 50)">
  <rect fill="#ffffff" height="3" width="0.5" ry="0" rx="0" y="13.5" x="49.5">
    <animate repeatCount="indefinite" begin="-2.583333333333333s" dur="4.166666666666666s" keyTimes="0;1" values="1;0.3" attributeName="opacity"></animate>
  </rect>
</g><g transform="rotate(136.8 50 50)">
  <rect fill="#ffffff" height="3" width="0.5" ry="0" rx="0" y="13.5" x="49.5">
    <animate repeatCount="indefinite" begin="-2.541666666666666s" dur="4.166666666666666s" keyTimes="0;1" values="1;0.3" attributeName="opacity"></animate>
  </rect>
</g><g transform="rotate(140.4 50 50)">
  <rect fill="#ffffff" height="3" width="0.5" ry="0" rx="0" y="13.5" x="49.5">
    <animate repeatCount="indefinite" begin="-2.4999999999999996s" dur="4.166666666666666s" keyTimes="0;1" values="1;0.3" attributeName="opacity"></animate>
  </rect>
</g><g transform="rotate(144 50 50)">
  <rect fill="#ffffff" height="3" width="0.5" ry="0" rx="0" y="13.5" x="49.5">
    <animate repeatCount="indefinite" begin="-2.458333333333333s" dur="4.166666666666666s" keyTimes="0;1" values="1;0.3" attributeName="opacity"></animate>
  </rect>
</g><g transform="rotate(147.6 50 50)">
  <rect fill="#ffffff" height="3" width="0.5" ry="0" rx="0" y="13.5" x="49.5">
    <animate repeatCount="indefinite" begin="-2.4166666666666665s" dur="4.166666666666666s" keyTimes="0;1" values="1;0.3" attributeName="opacity"></animate>
  </rect>
</g><g transform="rotate(151.2 50 50)">
  <rect fill="#ffffff" height="3" width="0.5" ry="0" rx="0" y="13.5" x="49.5">
    <animate repeatCount="indefinite" begin="-2.3749999999999996s" dur="4.166666666666666s" keyTimes="0;1" values="1;0.3" attributeName="opacity"></animate>
  </rect>
</g><g transform="rotate(154.8 50 50)">
  <rect fill="#ffffff" height="3" width="0.5" ry="0" rx="0" y="13.5" x="49.5">
    <animate repeatCount="indefinite" begin="-2.333333333333333s" dur="4.166666666666666s" keyTimes="0;1" values="1;0.3" attributeName="opacity"></animate>
  </rect>
</g><g transform="rotate(158.4 50 50)">
  <rect fill="#ffffff" height="3" width="0.5" ry="0" rx="0" y="13.5" x="49.5">
    <animate repeatCount="indefinite" begin="-2.2916666666666665s" dur="4.166666666666666s" keyTimes="0;1" values="1;0.3" attributeName="opacity"></animate>
  </rect>
</g><g transform="rotate(162 50 50)">
  <rect fill="#ffffff" height="3" width="0.5" ry="0" rx="0" y="13.5" x="49.5">
    <animate repeatCount="indefinite" begin="-2.2499999999999996s" dur="4.166666666666666s" keyTimes="0;1" values="1;0.3" attributeName="opacity"></animate>
  </rect>
</g><g transform="rotate(165.6 50 50)">
  <rect fill="#ffffff" height="3" width="0.5" ry="0" rx="0" y="13.5" x="49.5">
    <animate repeatCount="indefinite" begin="-2.208333333333333s" dur="4.166666666666666s" keyTimes="0;1" values="1;0.3" attributeName="opacity"></animate>
  </rect>
</g><g transform="rotate(169.2 50 50)">
  <rect fill="#ffffff" height="3" width="0.5" ry="0" rx="0" y="13.5" x="49.5">
    <animate repeatCount="indefinite" begin="-2.1666666666666665s" dur="4.166666666666666s" keyTimes="0;1" values="1;0.3" attributeName="opacity"></animate>
  </rect>
</g><g transform="rotate(172.8 50 50)">
  <rect fill="#ffffff" height="3" width="0.5" ry="0" rx="0" y="13.5" x="49.5">
    <animate repeatCount="indefinite" begin="-2.1249999999999996s" dur="4.166666666666666s" keyTimes="0;1" values="1;0.3" attributeName="opacity"></animate>
  </rect>
</g><g transform="rotate(176.4 50 50)">
  <rect fill="#ffffff" height="3" width="0.5" ry="0" rx="0" y="13.5" x="49.5">
    <animate repeatCount="indefinite" begin="-2.083333333333333s" dur="4.166666666666666s" keyTimes="0;1" values="1;0.3" attributeName="opacity"></animate>
  </rect>
</g><g transform="rotate(180 50 50)">
  <rect fill="#ffffff" height="3" width="0.5" ry="0" rx="0" y="13.5" x="49.5">
    <animate repeatCount="indefinite" begin="-2.0416666666666665s" dur="4.166666666666666s" keyTimes="0;1" values="1;0.3" attributeName="opacity"></animate>
  </rect>
</g><g transform="rotate(183.6 50 50)">
  <rect fill="#ffffff" height="3" width="0.5" ry="0" rx="0" y="13.5" x="49.5">
    <animate repeatCount="indefinite" begin="-1.9999999999999998s" dur="4.166666666666666s" keyTimes="0;1" values="1;0.3" attributeName="opacity"></animate>
  </rect>
</g><g transform="rotate(187.2 50 50)">
  <rect fill="#ffffff" height="3" width="0.5" ry="0" rx="0" y="13.5" x="49.5">
    <animate repeatCount="indefinite" begin="-1.958333333333333s" dur="4.166666666666666s" keyTimes="0;1" values="1;0.3" attributeName="opacity"></animate>
  </rect>
</g><g transform="rotate(190.8 50 50)">
  <rect fill="#ffffff" height="3" width="0.5" ry="0" rx="0" y="13.5" x="49.5">
    <animate repeatCount="indefinite" begin="-1.9166666666666663s" dur="4.166666666666666s" keyTimes="0;1" values="1;0.3" attributeName="opacity"></animate>
  </rect>
</g><g transform="rotate(194.4 50 50)">
  <rect fill="#ffffff" height="3" width="0.5" ry="0" rx="0" y="13.5" x="49.5">
    <animate repeatCount="indefinite" begin="-1.8749999999999998s" dur="4.166666666666666s" keyTimes="0;1" values="1;0.3" attributeName="opacity"></animate>
  </rect>
</g><g transform="rotate(198 50 50)">
  <rect fill="#ffffff" height="3" width="0.5" ry="0" rx="0" y="13.5" x="49.5">
    <animate repeatCount="indefinite" begin="-1.833333333333333s" dur="4.166666666666666s" keyTimes="0;1" values="1;0.3" attributeName="opacity"></animate>
  </rect>
</g><g transform="rotate(201.6 50 50)">
  <rect fill="#ffffff" height="3" width="0.5" ry="0" rx="0" y="13.5" x="49.5">
    <animate repeatCount="indefinite" begin="-1.7916666666666663s" dur="4.166666666666666s" keyTimes="0;1" values="1;0.3" attributeName="opacity"></animate>
  </rect>
</g><g transform="rotate(205.2 50 50)">
  <rect fill="#ffffff" height="3" width="0.5" ry="0" rx="0" y="13.5" x="49.5">
    <animate repeatCount="indefinite" begin="-1.7499999999999998s" dur="4.166666666666666s" keyTimes="0;1" values="1;0.3" attributeName="opacity"></animate>
  </rect>
</g><g transform="rotate(208.8 50 50)">
  <rect fill="#ffffff" height="3" width="0.5" ry="0" rx="0" y="13.5" x="49.5">
    <animate repeatCount="indefinite" begin="-1.708333333333333s" dur="4.166666666666666s" keyTimes="0;1" values="1;0.3" attributeName="opacity"></animate>
  </rect>
</g><g transform="rotate(212.4 50 50)">
  <rect fill="#ffffff" height="3" width="0.5" ry="0" rx="0" y="13.5" x="49.5">
    <animate repeatCount="indefinite" begin="-1.6666666666666665s" dur="4.166666666666666s" keyTimes="0;1" values="1;0.3" attributeName="opacity"></animate>
  </rect>
</g><g transform="rotate(216 50 50)">
  <rect fill="#ffffff" height="3" width="0.5" ry="0" rx="0" y="13.5" x="49.5">
    <animate repeatCount="indefinite" begin="-1.6249999999999998s" dur="4.166666666666666s" keyTimes="0;1" values="1;0.3" attributeName="opacity"></animate>
  </rect>
</g><g transform="rotate(219.6 50 50)">
  <rect fill="#ffffff" height="3" width="0.5" ry="0" rx="0" y="13.5" x="49.5">
    <animate repeatCount="indefinite" begin="-1.583333333333333s" dur="4.166666666666666s" keyTimes="0;1" values="1;0.3" attributeName="opacity"></animate>
  </rect>
</g><g transform="rotate(223.2 50 50)">
  <rect fill="#ffffff" height="3" width="0.5" ry="0" rx="0" y="13.5" x="49.5">
    <animate repeatCount="indefinite" begin="-1.5416666666666665s" dur="4.166666666666666s" keyTimes="0;1" values="1;0.3" attributeName="opacity"></animate>
  </rect>
</g><g transform="rotate(226.8 50 50)">
  <rect fill="#ffffff" height="3" width="0.5" ry="0" rx="0" y="13.5" x="49.5">
    <animate repeatCount="indefinite" begin="-1.4999999999999998s" dur="4.166666666666666s" keyTimes="0;1" values="1;0.3" attributeName="opacity"></animate>
  </rect>
</g><g transform="rotate(230.4 50 50)">
  <rect fill="#ffffff" height="3" width="0.5" ry="0" rx="0" y="13.5" x="49.5">
    <animate repeatCount="indefinite" begin="-1.458333333333333s" dur="4.166666666666666s" keyTimes="0;1" values="1;0.3" attributeName="opacity"></animate>
  </rect>
</g><g transform="rotate(234 50 50)">
  <rect fill="#ffffff" height="3" width="0.5" ry="0" rx="0" y="13.5" x="49.5">
    <animate repeatCount="indefinite" begin="-1.4166666666666665s" dur="4.166666666666666s" keyTimes="0;1" values="1;0.3" attributeName="opacity"></animate>
  </rect>
</g><g transform="rotate(237.6 50 50)">
  <rect fill="#ffffff" height="3" width="0.5" ry="0" rx="0" y="13.5" x="49.5">
    <animate repeatCount="indefinite" begin="-1.3749999999999998s" dur="4.166666666666666s" keyTimes="0;1" values="1;0.3" attributeName="opacity"></animate>
  </rect>
</g><g transform="rotate(241.2 50 50)">
  <rect fill="#ffffff" height="3" width="0.5" ry="0" rx="0" y="13.5" x="49.5">
    <animate repeatCount="indefinite" begin="-1.333333333333333s" dur="4.166666666666666s" keyTimes="0;1" values="1;0.3" attributeName="opacity"></animate>
  </rect>
</g><g transform="rotate(244.8 50 50)">
  <rect fill="#ffffff" height="3" width="0.5" ry="0" rx="0" y="13.5" x="49.5">
    <animate repeatCount="indefinite" begin="-1.2916666666666665s" dur="4.166666666666666s" keyTimes="0;1" values="1;0.3" attributeName="opacity"></animate>
  </rect>
</g><g transform="rotate(248.4 50 50)">
  <rect fill="#ffffff" height="3" width="0.5" ry="0" rx="0" y="13.5" x="49.5">
    <animate repeatCount="indefinite" begin="-1.2499999999999998s" dur="4.166666666666666s" keyTimes="0;1" values="1;0.3" attributeName="opacity"></animate>
  </rect>
</g><g transform="rotate(252 50 50)">
  <rect fill="#ffffff" height="3" width="0.5" ry="0" rx="0" y="13.5" x="49.5">
    <animate repeatCount="indefinite" begin="-1.2083333333333333s" dur="4.166666666666666s" keyTimes="0;1" values="1;0.3" attributeName="opacity"></animate>
  </rect>
</g><g transform="rotate(255.6 50 50)">
  <rect fill="#ffffff" height="3" width="0.5" ry="0" rx="0" y="13.5" x="49.5">
    <animate repeatCount="indefinite" begin="-1.1666666666666665s" dur="4.166666666666666s" keyTimes="0;1" values="1;0.3" attributeName="opacity"></animate>
  </rect>
</g><g transform="rotate(259.2 50 50)">
  <rect fill="#ffffff" height="3" width="0.5" ry="0" rx="0" y="13.5" x="49.5">
    <animate repeatCount="indefinite" begin="-1.1249999999999998s" dur="4.166666666666666s" keyTimes="0;1" values="1;0.3" attributeName="opacity"></animate>
  </rect>
</g><g transform="rotate(262.8 50 50)">
  <rect fill="#ffffff" height="3" width="0.5" ry="0" rx="0" y="13.5" x="49.5">
    <animate repeatCount="indefinite" begin="-1.0833333333333333s" dur="4.166666666666666s" keyTimes="0;1" values="1;0.3" attributeName="opacity"></animate>
  </rect>
</g><g transform="rotate(266.4 50 50)">
  <rect fill="#ffffff" height="3" width="0.5" ry="0" rx="0" y="13.5" x="49.5">
    <animate repeatCount="indefinite" begin="-1.0416666666666665s" dur="4.166666666666666s" keyTimes="0;1" values="1;0.3" attributeName="opacity"></animate>
  </rect>
</g><g transform="rotate(270 50 50)">
  <rect fill="#ffffff" height="3" width="0.5" ry="0" rx="0" y="13.5" x="49.5">
    <animate repeatCount="indefinite" begin="-0.9999999999999999s" dur="4.166666666666666s" keyTimes="0;1" values="1;0.3" attributeName="opacity"></animate>
  </rect>
</g><g transform="rotate(273.6 50 50)">
  <rect fill="#ffffff" height="3" width="0.5" ry="0" rx="0" y="13.5" x="49.5">
    <animate repeatCount="indefinite" begin="-0.9583333333333331s" dur="4.166666666666666s" keyTimes="0;1" values="1;0.3" attributeName="opacity"></animate>
  </rect>
</g><g transform="rotate(277.2 50 50)">
  <rect fill="#ffffff" height="3" width="0.5" ry="0" rx="0" y="13.5" x="49.5">
    <animate repeatCount="indefinite" begin="-0.9166666666666665s" dur="4.166666666666666s" keyTimes="0;1" values="1;0.3" attributeName="opacity"></animate>
  </rect>
</g><g transform="rotate(280.8 50 50)">
  <rect fill="#ffffff" height="3" width="0.5" ry="0" rx="0" y="13.5" x="49.5">
    <animate repeatCount="indefinite" begin="-0.8749999999999999s" dur="4.166666666666666s" keyTimes="0;1" values="1;0.3" attributeName="opacity"></animate>
  </rect>
</g><g transform="rotate(284.4 50 50)">
  <rect fill="#ffffff" height="3" width="0.5" ry="0" rx="0" y="13.5" x="49.5">
    <animate repeatCount="indefinite" begin="-0.8333333333333333s" dur="4.166666666666666s" keyTimes="0;1" values="1;0.3" attributeName="opacity"></animate>
  </rect>
</g><g transform="rotate(288 50 50)">
  <rect fill="#ffffff" height="3" width="0.5" ry="0" rx="0" y="13.5" x="49.5">
    <animate repeatCount="indefinite" begin="-0.7916666666666665s" dur="4.166666666666666s" keyTimes="0;1" values="1;0.3" attributeName="opacity"></animate>
  </rect>
</g><g transform="rotate(291.6 50 50)">
  <rect fill="#ffffff" height="3" width="0.5" ry="0" rx="0" y="13.5" x="49.5">
    <animate repeatCount="indefinite" begin="-0.7499999999999999s" dur="4.166666666666666s" keyTimes="0;1" values="1;0.3" attributeName="opacity"></animate>
  </rect>
</g><g transform="rotate(295.2 50 50)">
  <rect fill="#ffffff" height="3" width="0.5" ry="0" rx="0" y="13.5" x="49.5">
    <animate repeatCount="indefinite" begin="-0.7083333333333333s" dur="4.166666666666666s" keyTimes="0;1" values="1;0.3" attributeName="opacity"></animate>
  </rect>
</g><g transform="rotate(298.8 50 50)">
  <rect fill="#ffffff" height="3" width="0.5" ry="0" rx="0" y="13.5" x="49.5">
    <animate repeatCount="indefinite" begin="-0.6666666666666665s" dur="4.166666666666666s" keyTimes="0;1" values="1;0.3" attributeName="opacity"></animate>
  </rect>
</g><g transform="rotate(302.4 50 50)">
  <rect fill="#ffffff" height="3" width="0.5" ry="0" rx="0" y="13.5" x="49.5">
    <animate repeatCount="indefinite" begin="-0.6249999999999999s" dur="4.166666666666666s" keyTimes="0;1" values="1;0.3" attributeName="opacity"></animate>
  </rect>
</g><g transform="rotate(306 50 50)">
  <rect fill="#ffffff" height="3" width="0.5" ry="0" rx="0" y="13.5" x="49.5">
    <animate repeatCount="indefinite" begin="-0.5833333333333333s" dur="4.166666666666666s" keyTimes="0;1" values="1;0.3" attributeName="opacity"></animate>
  </rect>
</g><g transform="rotate(309.6 50 50)">
  <rect fill="#ffffff" height="3" width="0.5" ry="0" rx="0" y="13.5" x="49.5">
    <animate repeatCount="indefinite" begin="-0.5416666666666666s" dur="4.166666666666666s" keyTimes="0;1" values="1;0.3" attributeName="opacity"></animate>
  </rect>
</g><g transform="rotate(313.2 50 50)">
  <rect fill="#ffffff" height="3" width="0.5" ry="0" rx="0" y="13.5" x="49.5">
    <animate repeatCount="indefinite" begin="-0.49999999999999994s" dur="4.166666666666666s" keyTimes="0;1" values="1;0.3" attributeName="opacity"></animate>
  </rect>
</g><g transform="rotate(316.8 50 50)">
  <rect fill="#ffffff" height="3" width="0.5" ry="0" rx="0" y="13.5" x="49.5">
    <animate repeatCount="indefinite" begin="-0.45833333333333326s" dur="4.166666666666666s" keyTimes="0;1" values="1;0.3" attributeName="opacity"></animate>
  </rect>
</g><g transform="rotate(320.4 50 50)">
  <rect fill="#ffffff" height="3" width="0.5" ry="0" rx="0" y="13.5" x="49.5">
    <animate repeatCount="indefinite" begin="-0.41666666666666663s" dur="4.166666666666666s" keyTimes="0;1" values="1;0.3" attributeName="opacity"></animate>
  </rect>
</g><g transform="rotate(324 50 50)">
  <rect fill="#ffffff" height="3" width="0.5" ry="0" rx="0" y="13.5" x="49.5">
    <animate repeatCount="indefinite" begin="-0.37499999999999994s" dur="4.166666666666666s" keyTimes="0;1" values="1;0.3" attributeName="opacity"></animate>
  </rect>
</g><g transform="rotate(327.6 50 50)">
  <rect fill="#ffffff" height="3" width="0.5" ry="0" rx="0" y="13.5" x="49.5">
    <animate repeatCount="indefinite" begin="-0.33333333333333326s" dur="4.166666666666666s" keyTimes="0;1" values="1;0.3" attributeName="opacity"></animate>
  </rect>
</g><g transform="rotate(331.2 50 50)">
  <rect fill="#ffffff" height="3" width="0.5" ry="0" rx="0" y="13.5" x="49.5">
    <animate repeatCount="indefinite" begin="-0.29166666666666663s" dur="4.166666666666666s" keyTimes="0;1" values="1;0.3" attributeName="opacity"></animate>
  </rect>
</g><g transform="rotate(334.8 50 50)">
  <rect fill="#ffffff" height="3" width="0.5" ry="0" rx="0" y="13.5" x="49.5">
    <animate repeatCount="indefinite" begin="-0.24999999999999997s" dur="4.166666666666666s" keyTimes="0;1" values="1;0.3" attributeName="opacity"></animate>
  </rect>
</g><g transform="rotate(338.4 50 50)">
  <rect fill="#ffffff" height="3" width="0.5" ry="0" rx="0" y="13.5" x="49.5">
    <animate repeatCount="indefinite" begin="-0.20833333333333331s" dur="4.166666666666666s" keyTimes="0;1" values="1;0.3" attributeName="opacity"></animate>
  </rect>
</g><g transform="rotate(342 50 50)">
  <rect fill="#ffffff" height="3" width="0.5" ry="0" rx="0" y="13.5" x="49.5">
    <animate repeatCount="indefinite" begin="-0.16666666666666663s" dur="4.166666666666666s" keyTimes="0;1" values="1;0.3" attributeName="opacity"></animate>
  </rect>
</g><g transform="rotate(345.6 50 50)">
  <rect fill="#ffffff" height="3" width="0.5" ry="0" rx="0" y="13.5" x="49.5">
    <animate repeatCount="indefinite" begin="-0.12499999999999999s" dur="4.166666666666666s" keyTimes="0;1" values="1;0.3" attributeName="opacity"></animate>
  </rect>
</g><g transform="rotate(349.2 50 50)">
  <rect fill="#ffffff" height="3" width="0.5" ry="0" rx="0" y="13.5" x="49.5">
    <animate repeatCount="indefinite" begin="-0.08333333333333331s" dur="4.166666666666666s" keyTimes="0;1" values="1;0.3" attributeName="opacity"></animate>
  </rect>
</g><g transform="rotate(352.8 50 50)">
  <rect fill="#ffffff" height="3" width="0.5" ry="0" rx="0" y="13.5" x="49.5">
    <animate repeatCount="indefinite" begin="-0.04166666666666666s" dur="4.166666666666666s" keyTimes="0;1" values="1;0.3" attributeName="opacity"></animate>
  </rect>
</g><g transform="rotate(356.4 50 50)">
  <rect fill="#ffffff" height="3" width="0.5" ry="0" rx="0" y="13.5" x="49.5">
    <animate repeatCount="indefinite" begin="0s" dur="4.166666666666666s" keyTimes="0;1" values="1;0.3" attributeName="opacity"></animate>
  </rect>
</g><g></g></g></svg>