<svg width="24" height="25" viewBox="0 0 24 25" fill="none" xmlns="http://www.w3.org/2000/svg">
<g id="right-icon">
<mask id="mask0_103_6197" style="mask-type:alpha" maskUnits="userSpaceOnUse" x="0" y="0" width="24" height="25">
<rect id="Bounding box" y="0.5" width="24" height="24" fill="#D9D9D9"/>
</mask>
<g mask="url(#mask0_103_6197)">
<path id="search" d="M19.475 21.2875L13.2755 15.0875C12.7835 15.4875 12.2167 15.7979 11.575 16.0187C10.9334 16.2395 10.2555 16.35 9.54152 16.35C7.77269 16.35 6.27561 15.7379 5.05027 14.5137C3.82511 13.2894 3.21252 11.7935 3.21252 10.0262C3.21252 8.2587 3.82461 6.76245 5.04877 5.53745C6.27311 4.31245 7.76894 3.69995 9.53627 3.69995C11.3038 3.69995 12.8 4.31253 14.025 5.5377C15.25 6.76303 15.8625 8.26012 15.8625 10.029C15.8625 10.743 15.75 11.4229 15.525 12.0687C15.3 12.7145 14.9917 13.2833 14.6 13.775L20.8 19.9625L19.475 21.2875ZM9.53752 14.475C10.7792 14.475 11.8313 14.0437 12.6938 13.1812C13.5563 12.3187 13.9875 11.2666 13.9875 10.025C13.9875 8.78328 13.5563 7.7312 12.6938 6.8687C11.8313 6.0062 10.7792 5.57495 9.53752 5.57495C8.29586 5.57495 7.24377 6.0062 6.38127 6.8687C5.51877 7.7312 5.08752 8.78328 5.08752 10.025C5.08752 11.2666 5.51877 12.3187 6.38127 13.1812C7.24377 14.0437 8.29586 14.475 9.53752 14.475Z" fill="white"/>
</g>
</g>
</svg>
