<svg width="40" height="40" viewBox="0 0 40 40" fill="none" xmlns="http://www.w3.org/2000/svg">
<g id="settings">
<mask id="mask0_2145_2909" style="mask-type:alpha" maskUnits="userSpaceOnUse" x="0" y="0" width="40" height="40">
<rect id="Bounding box" width="40" height="40" fill="#D9D9D9"/>
</mask>
<g mask="url(#mask0_2145_2909)">
<path id="settings_2" d="M15.9169 36.6666L15.139 31.3887C14.6668 31.2128 14.183 30.9814 13.6877 30.6945C13.1925 30.4073 12.7457 30.1063 12.3473 29.7916L7.41691 31.9862L3.30566 24.7916L7.7365 21.5137C7.69011 21.2823 7.66233 21.0301 7.65316 20.757C7.64372 20.4837 7.639 20.2313 7.639 19.9999C7.639 19.7685 7.64372 19.5162 7.65316 19.2428C7.66233 18.9698 7.69011 18.7176 7.7365 18.4862L3.30566 15.2083L7.41691 8.01367L12.3473 10.2083C12.7457 9.89353 13.1948 9.59256 13.6948 9.30534C14.1948 9.01839 14.6762 8.79617 15.139 8.63867L15.9169 3.33325H24.0836L24.8615 8.61117C25.3337 8.787 25.8221 9.01381 26.3265 9.29159C26.8312 9.56936 27.2734 9.87492 27.6532 10.2083L32.5836 8.01367L36.6948 15.2083L32.264 18.4303C32.3104 18.6803 32.3382 18.942 32.3473 19.2153C32.3568 19.4884 32.3615 19.7499 32.3615 19.9999C32.3615 20.2499 32.3568 20.5069 32.3473 20.7708C32.3382 21.0346 32.3058 21.2916 32.2502 21.5416L36.6807 24.7916L32.5698 31.9862L27.6532 29.7916C27.2548 30.1063 26.8104 30.4119 26.3198 30.7083C25.829 31.0046 25.3429 31.2314 24.8615 31.3887L24.0836 36.6666H15.9169ZM20.0282 25.5553C21.5651 25.5553 22.8752 25.0137 23.9586 23.9303C25.0419 22.847 25.5836 21.5369 25.5836 19.9999C25.5836 18.463 25.0419 17.1528 23.9586 16.0695C22.8752 14.9862 21.5651 14.4445 20.0282 14.4445C18.4818 14.4445 17.1693 14.9862 16.0907 16.0695C15.0118 17.1528 14.4723 18.463 14.4723 19.9999C14.4723 21.5369 15.0118 22.847 16.0907 23.9303C17.1693 25.0137 18.4818 25.5553 20.0282 25.5553Z" fill="#5D1138"/>
</g>
</g>
</svg>
